<svg width="171" height="149" viewBox="0 0 171 149" fill="none" xmlns="http://www.w3.org/2000/svg">
<g filter="url(#filter0_dd)">
<rect x="116.243" y="116.245" width="78.4905" height="78.4905" rx="39.2453" transform="rotate(-180 116.243 116.245)" fill="url(#paint0_linear)"/>
</g>
<rect x="117" y="117" width="80" height="80" rx="40" transform="rotate(-180 117 117)" fill="url(#paint1_linear)"/>
<g filter="url(#filter1_i)">
<rect x="112.999" y="113.001" width="72" height="72" rx="36" transform="rotate(-180 112.999 113.001)" fill="url(#paint2_linear)"/>
</g>
<g filter="url(#filter2_f)">
<rect x="112.999" y="113.001" width="72" height="72" rx="36" transform="rotate(-180 112.999 113.001)" fill="url(#paint3_linear)"/>
</g>
<path d="M65.6952 79.212L63.6702 73.965C63.6102 73.809 63.5472 73.629 63.4812 73.425C63.4152 73.215 63.3522 72.993 63.2922 72.759C63.1662 73.245 63.0372 73.65 62.9052 73.974L60.8802 79.212H65.6952ZM69.3312 84H67.9812C67.8252 84 67.6992 83.961 67.6032 83.883C67.5072 83.805 67.4352 83.706 67.3872 83.586L66.1812 80.472H60.3942L59.1882 83.586C59.1522 83.694 59.0832 83.79 58.9812 83.874C58.8792 83.958 58.7532 84 58.6032 84H57.2532L62.4102 71.103H64.1742L69.3312 84ZM77.9183 74.883V84H76.9643C76.7363 84 76.5923 83.889 76.5323 83.667L76.4063 82.686C76.0103 83.124 75.5663 83.478 75.0743 83.748C74.5823 84.012 74.0183 84.144 73.3823 84.144C72.8843 84.144 72.4433 84.063 72.0593 83.901C71.6813 83.733 71.3633 83.499 71.1053 83.199C70.8473 82.899 70.6523 82.536 70.5203 82.11C70.3943 81.684 70.3313 81.213 70.3313 80.697V74.883H71.9333V80.697C71.9333 81.387 72.0893 81.921 72.4013 82.299C72.7193 82.677 73.2023 82.866 73.8503 82.866C74.3243 82.866 74.7653 82.755 75.1733 82.533C75.5873 82.305 75.9683 81.993 76.3163 81.597V74.883H77.9183ZM83.2575 84.144C82.5375 84.144 81.9825 83.943 81.5925 83.541C81.2085 83.139 81.0165 82.56 81.0165 81.804V76.224H79.9185C79.8225 76.224 79.7415 76.197 79.6755 76.143C79.6095 76.083 79.5765 75.993 79.5765 75.873V75.234L81.0705 75.045L81.4395 72.228C81.4575 72.138 81.4965 72.066 81.5565 72.012C81.6225 71.952 81.7065 71.922 81.8085 71.922H82.6185V75.063H85.2555V76.224H82.6185V81.696C82.6185 82.08 82.7115 82.365 82.8975 82.551C83.0835 82.737 83.3235 82.83 83.6175 82.83C83.7855 82.83 83.9295 82.809 84.0495 82.767C84.1755 82.719 84.2835 82.668 84.3735 82.614C84.4635 82.56 84.5385 82.512 84.5985 82.47C84.6645 82.422 84.7215 82.398 84.7695 82.398C84.8535 82.398 84.9285 82.449 84.9945 82.551L85.4625 83.316C85.1865 83.574 84.8535 83.778 84.4635 83.928C84.0735 84.072 83.6715 84.144 83.2575 84.144ZM90.6999 74.739C91.3659 74.739 91.9659 74.85 92.4999 75.072C93.0339 75.294 93.4899 75.609 93.8679 76.017C94.2459 76.425 94.5339 76.92 94.7319 77.502C94.9359 78.078 95.0379 78.723 95.0379 79.437C95.0379 80.157 94.9359 80.805 94.7319 81.381C94.5339 81.957 94.2459 82.449 93.8679 82.857C93.4899 83.265 93.0339 83.58 92.4999 83.802C91.9659 84.018 91.3659 84.126 90.6999 84.126C90.0279 84.126 89.4219 84.018 88.8819 83.802C88.3479 83.58 87.8919 83.265 87.5139 82.857C87.1359 82.449 86.8449 81.957 86.6409 81.381C86.4429 80.805 86.3439 80.157 86.3439 79.437C86.3439 78.723 86.4429 78.078 86.6409 77.502C86.8449 76.92 87.1359 76.425 87.5139 76.017C87.8919 75.609 88.3479 75.294 88.8819 75.072C89.4219 74.85 90.0279 74.739 90.6999 74.739ZM90.6999 82.875C91.5999 82.875 92.2719 82.575 92.7159 81.975C93.1599 81.369 93.3819 80.526 93.3819 79.446C93.3819 78.36 93.1599 77.514 92.7159 76.908C92.2719 76.302 91.5999 75.999 90.6999 75.999C90.2439 75.999 89.8449 76.077 89.5029 76.233C89.1669 76.389 88.8849 76.614 88.6569 76.908C88.4349 77.202 88.2669 77.565 88.1529 77.997C88.0449 78.423 87.9909 78.906 87.9909 79.446C87.9909 80.526 88.2129 81.369 88.6569 81.975C89.1069 82.575 89.7879 82.875 90.6999 82.875Z" fill="#7F8489"/>
<defs>
<filter id="filter0_dd" x="0.75293" y="0.754944" width="169.491" height="169.491" filterUnits="userSpaceOnUse" color-interpolation-filters="sRGB">
<feFlood flood-opacity="0" result="BackgroundImageFix"/>
<feColorMatrix in="SourceAlpha" type="matrix" values="0 0 0 0 0 0 0 0 0 0 0 0 0 0 0 0 0 0 127 0"/>
<feOffset dx="-7" dy="-7"/>
<feGaussianBlur stdDeviation="15"/>
<feColorMatrix type="matrix" values="0 0 0 0 0.14902 0 0 0 0 0.180392 0 0 0 0 0.196078 0 0 0 1 0"/>
<feBlend mode="normal" in2="BackgroundImageFix" result="effect1_dropShadow"/>
<feColorMatrix in="SourceAlpha" type="matrix" values="0 0 0 0 0 0 0 0 0 0 0 0 0 0 0 0 0 0 127 0"/>
<feOffset dx="14" dy="14"/>
<feGaussianBlur stdDeviation="20"/>
<feColorMatrix type="matrix" values="0 0 0 0 0.0646354 0 0 0 0 0.0646354 0 0 0 0 0.0708333 0 0 0 0.75 0"/>
<feBlend mode="normal" in2="effect1_dropShadow" result="effect2_dropShadow"/>
<feBlend mode="normal" in="SourceGraphic" in2="effect2_dropShadow" result="shape"/>
</filter>
<filter id="filter1_i" x="40.9991" y="41.0013" width="72" height="72" filterUnits="userSpaceOnUse" color-interpolation-filters="sRGB">
<feFlood flood-opacity="0" result="BackgroundImageFix"/>
<feBlend mode="normal" in="SourceGraphic" in2="BackgroundImageFix" result="shape"/>
<feColorMatrix in="SourceAlpha" type="matrix" values="0 0 0 0 0 0 0 0 0 0 0 0 0 0 0 0 0 0 127 0" result="hardAlpha"/>
<feOffset/>
<feGaussianBlur stdDeviation="1.5"/>
<feComposite in2="hardAlpha" operator="arithmetic" k2="-1" k3="1"/>
<feColorMatrix type="matrix" values="0 0 0 0 0.245833 0 0 0 0 0.245833 0 0 0 0 0.245833 0 0 0 0.45 0"/>
<feBlend mode="normal" in2="shape" result="effect1_innerShadow"/>
</filter>
<filter id="filter2_f" x="39.9991" y="40.0013" width="74" height="74" filterUnits="userSpaceOnUse" color-interpolation-filters="sRGB">
<feFlood flood-opacity="0" result="BackgroundImageFix"/>
<feBlend mode="normal" in="SourceGraphic" in2="BackgroundImageFix" result="shape"/>
<feGaussianBlur stdDeviation="0.5" result="effect1_foregroundBlur"/>
</filter>
<linearGradient id="paint0_linear" x1="181.355" y1="185.817" x2="128.731" y2="126.949" gradientUnits="userSpaceOnUse">
<stop stop-color="#1D2328"/>
<stop offset="1" stop-color="#131314"/>
</linearGradient>
<linearGradient id="paint1_linear" x1="183.364" y1="187.909" x2="129.727" y2="127.909" gradientUnits="userSpaceOnUse">
<stop stop-color="#1D2328"/>
<stop offset="1" stop-color="#131314"/>
</linearGradient>
<linearGradient id="paint2_linear" x1="172.399" y1="176.001" x2="127.399" y2="121.101" gradientUnits="userSpaceOnUse">
<stop stop-color="#2F353A"/>
<stop offset="1" stop-color="#1C1F22"/>
</linearGradient>
<linearGradient id="paint3_linear" x1="172.399" y1="176.001" x2="127.399" y2="121.101" gradientUnits="userSpaceOnUse">
<stop stop-color="#2F353A"/>
<stop offset="1" stop-color="#1C1F22"/>
</linearGradient>
</defs>
</svg>
