<svg width="226" height="236" viewBox="0 0 226 236" fill="none" xmlns="http://www.w3.org/2000/svg">
<g filter="url(#filter0_dd)">
<rect x="176" y="181" width="126" height="126" rx="63" transform="rotate(-180 176 181)" fill="url(#paint0_linear)"/>
</g>
<g filter="url(#filter1_f)">
<rect x="177" y="182" width="128" height="128" rx="64" transform="rotate(-180 177 182)" fill="url(#paint1_linear)"/>
</g>
<rect x="172.5" y="177.5" width="119" height="119" rx="59.5" transform="rotate(-180 172.5 177.5)" fill="url(#paint2_linear)" stroke="#058DD9"/>
<g filter="url(#filter2_f)">
<rect x="173" y="178" width="120" height="120" rx="60" transform="rotate(-180 173 178)" fill="url(#paint3_linear)"/>
</g>
<path d="M86.3747 118.932C86.3747 120.84 86.0507 122.598 85.4027 124.206C84.7667 125.802 83.8607 127.176 82.6847 128.328C81.5207 129.48 80.1167 130.38 78.4727 131.028C76.8287 131.676 75.0047 132 73.0007 132H62.9567V105.882H73.0007C75.0047 105.882 76.8287 106.206 78.4727 106.854C80.1167 107.502 81.5207 108.408 82.6847 109.572C83.8607 110.724 84.7667 112.098 85.4027 113.694C86.0507 115.29 86.3747 117.036 86.3747 118.932ZM80.8307 118.932C80.8307 117.564 80.6507 116.334 80.2907 115.242C79.9307 114.15 79.4147 113.226 78.7427 112.47C78.0707 111.714 77.2487 111.132 76.2767 110.724C75.3167 110.316 74.2247 110.112 73.0007 110.112H68.3927V127.77H73.0007C74.2247 127.77 75.3167 127.572 76.2767 127.176C77.2487 126.768 78.0707 126.186 78.7427 125.43C79.4147 124.662 79.9307 123.732 80.2907 122.64C80.6507 121.548 80.8307 120.312 80.8307 118.932ZM101.22 120.534C101.22 120.018 101.148 119.526 101.004 119.058C100.872 118.59 100.656 118.176 100.356 117.816C100.056 117.456 99.6785 117.174 99.2225 116.97C98.7665 116.754 98.2205 116.646 97.5845 116.646C96.3965 116.646 95.4665 116.982 94.7945 117.654C94.1225 118.326 93.6845 119.286 93.4805 120.534H101.22ZM93.4085 123.486C93.5645 125.226 94.0565 126.498 94.8845 127.302C95.7245 128.106 96.8165 128.508 98.1605 128.508C98.8445 128.508 99.4325 128.43 99.9245 128.274C100.428 128.106 100.866 127.926 101.238 127.734C101.622 127.53 101.964 127.35 102.264 127.194C102.576 127.026 102.882 126.942 103.182 126.942C103.566 126.942 103.866 127.086 104.082 127.374L105.522 129.174C104.994 129.786 104.412 130.296 103.776 130.704C103.14 131.1 102.48 131.418 101.796 131.658C101.112 131.886 100.422 132.042 99.7265 132.126C99.0305 132.222 98.3585 132.27 97.7105 132.27C96.4145 132.27 95.2025 132.06 94.0745 131.64C92.9585 131.208 91.9805 130.578 91.1405 129.75C90.3125 128.91 89.6585 127.872 89.1785 126.636C88.6985 125.4 88.4585 123.966 88.4585 122.334C88.4585 121.074 88.6625 119.886 89.0705 118.77C89.4905 117.654 90.0905 116.682 90.8705 115.854C91.6505 115.026 92.5985 114.372 93.7145 113.892C94.8305 113.4 96.0905 113.154 97.4945 113.154C98.6825 113.154 99.7745 113.346 100.77 113.73C101.778 114.102 102.642 114.648 103.362 115.368C104.094 116.088 104.658 116.976 105.054 118.032C105.462 119.076 105.666 120.27 105.666 121.614C105.666 121.986 105.648 122.292 105.612 122.532C105.576 122.772 105.516 122.964 105.432 123.108C105.348 123.252 105.234 123.354 105.09 123.414C104.946 123.462 104.76 123.486 104.532 123.486H93.4085ZM113.717 127.104C114.185 127.644 114.689 128.022 115.229 128.238C115.781 128.454 116.351 128.562 116.939 128.562C117.551 128.562 118.103 128.454 118.595 128.238C119.099 128.01 119.531 127.656 119.891 127.176C120.251 126.684 120.527 126.048 120.719 125.268C120.911 124.488 121.007 123.546 121.007 122.442C121.007 121.458 120.929 120.624 120.773 119.94C120.617 119.244 120.383 118.674 120.071 118.23C119.771 117.786 119.399 117.462 118.955 117.258C118.511 117.054 117.995 116.952 117.407 116.952C116.627 116.952 115.949 117.126 115.373 117.474C114.809 117.81 114.257 118.308 113.717 118.968V127.104ZM113.717 115.584C114.449 114.852 115.259 114.264 116.147 113.82C117.035 113.376 118.031 113.154 119.135 113.154C120.203 113.154 121.163 113.37 122.015 113.802C122.879 114.222 123.611 114.828 124.211 115.62C124.823 116.412 125.291 117.372 125.615 118.5C125.951 119.616 126.119 120.87 126.119 122.262C126.119 123.762 125.927 125.13 125.543 126.366C125.171 127.59 124.637 128.64 123.941 129.516C123.245 130.392 122.411 131.07 121.439 131.55C120.479 132.03 119.405 132.27 118.217 132.27C117.641 132.27 117.125 132.21 116.669 132.09C116.213 131.982 115.793 131.826 115.409 131.622C115.025 131.418 114.671 131.178 114.347 130.902C114.023 130.614 113.717 130.296 113.429 129.948L113.231 131.064C113.147 131.412 113.009 131.658 112.817 131.802C112.625 131.934 112.367 132 112.043 132H108.749V105.162H113.717V115.584ZM145.606 113.442V132H142.546C141.91 132 141.502 131.712 141.322 131.136L140.998 129.84C140.626 130.2 140.242 130.53 139.846 130.83C139.45 131.13 139.024 131.388 138.568 131.604C138.124 131.82 137.638 131.988 137.11 132.108C136.594 132.228 136.03 132.288 135.418 132.288C134.41 132.288 133.51 132.114 132.718 131.766C131.938 131.418 131.284 130.932 130.756 130.308C130.228 129.684 129.826 128.94 129.55 128.076C129.274 127.212 129.136 126.264 129.136 125.232V113.442H134.104V125.232C134.104 126.264 134.338 127.068 134.806 127.644C135.286 128.208 135.994 128.49 136.93 128.49C137.626 128.49 138.28 128.34 138.892 128.04C139.504 127.728 140.086 127.308 140.638 126.78V113.442H145.606ZM156.618 122.028C157.638 122.028 158.388 121.77 158.868 121.254C159.36 120.738 159.606 120.072 159.606 119.256C159.606 118.404 159.36 117.738 158.868 117.258C158.388 116.766 157.638 116.52 156.618 116.52C155.598 116.52 154.848 116.766 154.368 117.258C153.888 117.738 153.648 118.404 153.648 119.256C153.648 120.06 153.888 120.726 154.368 121.254C154.86 121.77 155.61 122.028 156.618 122.028ZM161.316 132.756C161.316 132.432 161.214 132.168 161.01 131.964C160.806 131.76 160.53 131.598 160.182 131.478C159.846 131.358 159.444 131.274 158.976 131.226C158.508 131.166 158.01 131.124 157.482 131.1C156.954 131.064 156.408 131.034 155.844 131.01C155.28 130.986 154.728 130.944 154.188 130.884C153.768 131.136 153.42 131.436 153.144 131.784C152.88 132.12 152.748 132.504 152.748 132.936C152.748 133.236 152.814 133.512 152.946 133.764C153.09 134.016 153.324 134.232 153.648 134.412C153.972 134.592 154.398 134.73 154.926 134.826C155.454 134.934 156.114 134.988 156.906 134.988C157.722 134.988 158.412 134.934 158.976 134.826C159.54 134.718 159.996 134.562 160.344 134.358C160.692 134.166 160.938 133.932 161.082 133.656C161.238 133.38 161.316 133.08 161.316 132.756ZM166.248 114.054V115.872C166.248 116.16 166.164 116.388 165.996 116.556C165.84 116.724 165.576 116.85 165.204 116.934L163.692 117.24C163.896 117.828 163.998 118.458 163.998 119.13C163.998 120.054 163.806 120.888 163.422 121.632C163.05 122.364 162.534 122.994 161.874 123.522C161.214 124.038 160.434 124.44 159.534 124.728C158.634 125.004 157.662 125.142 156.618 125.142C155.958 125.142 155.34 125.088 154.764 124.98C154.26 125.292 154.008 125.634 154.008 126.006C154.008 126.354 154.176 126.606 154.512 126.762C154.86 126.918 155.31 127.032 155.862 127.104C156.426 127.164 157.062 127.206 157.77 127.23C158.49 127.242 159.216 127.278 159.948 127.338C160.692 127.398 161.418 127.506 162.126 127.662C162.846 127.806 163.482 128.052 164.034 128.4C164.598 128.736 165.048 129.186 165.384 129.75C165.732 130.314 165.906 131.04 165.906 131.928C165.906 132.756 165.702 133.56 165.294 134.34C164.886 135.12 164.292 135.816 163.512 136.428C162.744 137.04 161.796 137.532 160.668 137.904C159.54 138.276 158.256 138.462 156.816 138.462C155.388 138.462 154.146 138.324 153.09 138.048C152.046 137.784 151.176 137.424 150.48 136.968C149.796 136.524 149.286 136.008 148.95 135.42C148.614 134.832 148.446 134.22 148.446 133.584C148.446 132.756 148.698 132.054 149.202 131.478C149.706 130.902 150.402 130.44 151.29 130.092C150.822 129.828 150.444 129.486 150.156 129.066C149.88 128.634 149.742 128.076 149.742 127.392C149.742 126.84 149.94 126.258 150.336 125.646C150.744 125.034 151.368 124.524 152.208 124.116C151.26 123.612 150.51 122.94 149.958 122.1C149.406 121.248 149.13 120.258 149.13 119.13C149.13 118.206 149.316 117.372 149.688 116.628C150.072 115.884 150.6 115.254 151.272 114.738C151.944 114.21 152.736 113.808 153.648 113.532C154.56 113.256 155.55 113.118 156.618 113.118C158.202 113.118 159.6 113.43 160.812 114.054H166.248Z" fill="#E6E6E6"/>
<defs>
<filter id="filter0_dd" x="0" y="0" width="226" height="236" filterUnits="userSpaceOnUse" color-interpolation-filters="sRGB">
<feFlood flood-opacity="0" result="BackgroundImageFix"/>
<feColorMatrix in="SourceAlpha" type="matrix" values="0 0 0 0 0 0 0 0 0 0 0 0 0 0 0 0 0 0 127 0"/>
<feOffset dx="-10" dy="-15"/>
<feGaussianBlur stdDeviation="20"/>
<feColorMatrix type="matrix" values="0 0 0 0 0.183073 0 0 0 0 0.224583 0 0 0 0 0.2375 0 0 0 1 0"/>
<feBlend mode="normal" in2="BackgroundImageFix" result="effect1_dropShadow"/>
<feColorMatrix in="SourceAlpha" type="matrix" values="0 0 0 0 0 0 0 0 0 0 0 0 0 0 0 0 0 0 127 0"/>
<feOffset dx="10" dy="15"/>
<feGaussianBlur stdDeviation="20"/>
<feColorMatrix type="matrix" values="0 0 0 0 0 0 0 0 0 0 0 0 0 0 0 0 0 0 1 0"/>
<feBlend mode="normal" in2="effect1_dropShadow" result="effect2_dropShadow"/>
<feBlend mode="normal" in="SourceGraphic" in2="effect2_dropShadow" result="shape"/>
</filter>
<filter id="filter1_f" x="48" y="53" width="130" height="130" filterUnits="userSpaceOnUse" color-interpolation-filters="sRGB">
<feFlood flood-opacity="0" result="BackgroundImageFix"/>
<feBlend mode="normal" in="SourceGraphic" in2="BackgroundImageFix" result="shape"/>
<feGaussianBlur stdDeviation="0.5" result="effect1_foregroundBlur"/>
</filter>
<filter id="filter2_f" x="52" y="57" width="122" height="122" filterUnits="userSpaceOnUse" color-interpolation-filters="sRGB">
<feFlood flood-opacity="0" result="BackgroundImageFix"/>
<feBlend mode="normal" in="SourceGraphic" in2="BackgroundImageFix" result="shape"/>
<feGaussianBlur stdDeviation="0.5" result="effect1_foregroundBlur"/>
</filter>
<linearGradient id="paint0_linear" x1="280.523" y1="292.682" x2="196.045" y2="198.182" gradientUnits="userSpaceOnUse">
<stop stop-color="#11A8FD"/>
<stop offset="1" stop-color="#0081C9"/>
</linearGradient>
<linearGradient id="paint1_linear" x1="282.6" y1="294" x2="202.6" y2="196.4" gradientUnits="userSpaceOnUse">
<stop stop-color="#0A6A9F"/>
<stop offset="1" stop-color="#0081C9"/>
</linearGradient>
<linearGradient id="paint2_linear" x1="272" y1="283" x2="197" y2="191.5" gradientUnits="userSpaceOnUse">
<stop stop-color="#005EA3"/>
<stop offset="1" stop-color="#11A8FD"/>
</linearGradient>
<linearGradient id="paint3_linear" x1="272" y1="283" x2="197" y2="191.5" gradientUnits="userSpaceOnUse">
<stop stop-color="#005EA3"/>
<stop offset="1" stop-color="#11A8FD"/>
</linearGradient>
</defs>
</svg>
