<svg width="171" height="149" viewBox="0 0 171 149" fill="none" xmlns="http://www.w3.org/2000/svg">
<g filter="url(#filter0_dd)">
<rect x="116.243" y="116.245" width="78.4905" height="78.4905" rx="39.2453" transform="rotate(-180 116.243 116.245)" fill="url(#paint0_linear)"/>
</g>
<rect x="117" y="117" width="80" height="80" rx="40" transform="rotate(-180 117 117)" fill="url(#paint1_linear)"/>
<g filter="url(#filter1_i)">
<rect x="112.999" y="113.001" width="72" height="72" rx="36" transform="rotate(-180 112.999 113.001)" fill="url(#paint2_linear)"/>
</g>
<g filter="url(#filter2_f)">
<rect x="112.999" y="113.001" width="72" height="72" rx="36" transform="rotate(-180 112.999 113.001)" fill="url(#paint3_linear)"/>
</g>
<path d="M62.7281 69.103V82H61.1981V72.523C61.1981 72.397 61.2011 72.262 61.2071 72.118C61.2191 71.974 61.2311 71.827 61.2431 71.677L56.8151 79.741C56.6771 80.011 56.4671 80.146 56.1851 80.146H55.9331C55.6511 80.146 55.4411 80.011 55.3031 79.741L50.7851 71.641C50.8211 71.959 50.8391 72.253 50.8391 72.523V82H49.3091V69.103H50.5961C50.7521 69.103 50.8721 69.118 50.9561 69.148C51.0401 69.178 51.1211 69.262 51.1991 69.4L55.6541 77.338C55.7261 77.482 55.7951 77.632 55.8611 77.788C55.9331 77.944 55.9991 78.103 56.0591 78.265C56.1191 78.103 56.1821 77.944 56.2481 77.788C56.3141 77.626 56.3861 77.473 56.4641 77.329L60.8381 69.4C60.9101 69.262 60.9881 69.178 61.0721 69.148C61.1621 69.118 61.2851 69.103 61.4411 69.103H62.7281ZM70.3252 77.896C69.5872 77.92 68.9572 77.98 68.4352 78.076C67.9192 78.166 67.4962 78.286 67.1662 78.436C66.8422 78.586 66.6052 78.763 66.4552 78.967C66.3112 79.171 66.2392 79.399 66.2392 79.651C66.2392 79.891 66.2782 80.098 66.3562 80.272C66.4342 80.446 66.5392 80.59 66.6712 80.704C66.8092 80.812 66.9682 80.893 67.1482 80.947C67.3342 80.995 67.5322 81.019 67.7422 81.019C68.0242 81.019 68.2822 80.992 68.5162 80.938C68.7502 80.878 68.9692 80.794 69.1732 80.686C69.3832 80.578 69.5812 80.449 69.7672 80.299C69.9592 80.149 70.1452 79.978 70.3252 79.786V77.896ZM65.1502 74.17C65.6542 73.684 66.1972 73.321 66.7792 73.081C67.3612 72.841 68.0062 72.721 68.7142 72.721C69.2242 72.721 69.6772 72.805 70.0732 72.973C70.4692 73.141 70.8022 73.375 71.0722 73.675C71.3422 73.975 71.5462 74.338 71.6842 74.764C71.8222 75.19 71.8912 75.658 71.8912 76.168V82H71.1802C71.0242 82 70.9042 81.976 70.8202 81.928C70.7362 81.874 70.6702 81.772 70.6222 81.622L70.4422 80.758C70.2022 80.98 69.9682 81.178 69.7402 81.352C69.5122 81.52 69.2722 81.664 69.0202 81.784C68.7682 81.898 68.4982 81.985 68.2102 82.045C67.9282 82.111 67.6132 82.144 67.2652 82.144C66.9112 82.144 66.5782 82.096 66.2662 82C65.9542 81.898 65.6812 81.748 65.4472 81.55C65.2192 81.352 65.0362 81.103 64.8982 80.803C64.7662 80.497 64.7002 80.137 64.7002 79.723C64.7002 79.363 64.7992 79.018 64.9972 78.688C65.1952 78.352 65.5162 78.055 65.9602 77.797C66.4042 77.539 66.9832 77.329 67.6972 77.167C68.4112 76.999 69.2872 76.903 70.3252 76.879V76.168C70.3252 75.46 70.1722 74.926 69.8662 74.566C69.5602 74.2 69.1132 74.017 68.5252 74.017C68.1292 74.017 67.7962 74.068 67.5262 74.17C67.2622 74.266 67.0312 74.377 66.8332 74.503C66.6412 74.623 66.4732 74.734 66.3292 74.836C66.1912 74.932 66.0532 74.98 65.9152 74.98C65.8072 74.98 65.7142 74.953 65.6362 74.899C65.5582 74.839 65.4922 74.767 65.4382 74.683L65.1502 74.17ZM75.8435 74.206C76.0415 73.984 76.2515 73.783 76.4735 73.603C76.6955 73.423 76.9295 73.27 77.1755 73.144C77.4275 73.012 77.6915 72.913 77.9675 72.847C78.2495 72.775 78.5525 72.739 78.8765 72.739C79.3745 72.739 79.8125 72.823 80.1905 72.991C80.5745 73.153 80.8925 73.387 81.1445 73.693C81.4025 73.993 81.5975 74.356 81.7295 74.782C81.8615 75.208 81.9275 75.679 81.9275 76.195V82H80.3165V76.195C80.3165 75.505 80.1575 74.971 79.8395 74.593C79.5275 74.209 79.0505 74.017 78.4085 74.017C77.9345 74.017 77.4905 74.131 77.0765 74.359C76.6685 74.587 76.2905 74.896 75.9425 75.286V82H74.3315V72.883H75.2945C75.5225 72.883 75.6635 72.994 75.7175 73.216L75.8435 74.206ZM91.8656 72.883V82H90.9116C90.6836 82 90.5396 81.889 90.4796 81.667L90.3536 80.686C89.9576 81.124 89.5136 81.478 89.0216 81.748C88.5296 82.012 87.9656 82.144 87.3296 82.144C86.8316 82.144 86.3906 82.063 86.0066 81.901C85.6286 81.733 85.3106 81.499 85.0526 81.199C84.7946 80.899 84.5996 80.536 84.4676 80.11C84.3416 79.684 84.2786 79.213 84.2786 78.697V72.883H85.8806V78.697C85.8806 79.387 86.0366 79.921 86.3486 80.299C86.6666 80.677 87.1496 80.866 87.7976 80.866C88.2716 80.866 88.7126 80.755 89.1206 80.533C89.5346 80.305 89.9156 79.993 90.2636 79.597V72.883H91.8656ZM99.3467 77.896C98.6087 77.92 97.9787 77.98 97.4567 78.076C96.9407 78.166 96.5177 78.286 96.1877 78.436C95.8637 78.586 95.6267 78.763 95.4767 78.967C95.3327 79.171 95.2607 79.399 95.2607 79.651C95.2607 79.891 95.2997 80.098 95.3777 80.272C95.4557 80.446 95.5607 80.59 95.6927 80.704C95.8307 80.812 95.9897 80.893 96.1697 80.947C96.3557 80.995 96.5537 81.019 96.7637 81.019C97.0457 81.019 97.3037 80.992 97.5377 80.938C97.7717 80.878 97.9907 80.794 98.1947 80.686C98.4047 80.578 98.6027 80.449 98.7887 80.299C98.9807 80.149 99.1667 79.978 99.3467 79.786V77.896ZM94.1717 74.17C94.6757 73.684 95.2187 73.321 95.8007 73.081C96.3827 72.841 97.0277 72.721 97.7357 72.721C98.2457 72.721 98.6987 72.805 99.0947 72.973C99.4907 73.141 99.8237 73.375 100.094 73.675C100.364 73.975 100.568 74.338 100.706 74.764C100.844 75.19 100.913 75.658 100.913 76.168V82H100.202C100.046 82 99.9257 81.976 99.8417 81.928C99.7577 81.874 99.6917 81.772 99.6437 81.622L99.4637 80.758C99.2237 80.98 98.9897 81.178 98.7617 81.352C98.5337 81.52 98.2937 81.664 98.0417 81.784C97.7897 81.898 97.5197 81.985 97.2317 82.045C96.9497 82.111 96.6347 82.144 96.2867 82.144C95.9327 82.144 95.5997 82.096 95.2877 82C94.9757 81.898 94.7027 81.748 94.4687 81.55C94.2407 81.352 94.0577 81.103 93.9197 80.803C93.7877 80.497 93.7217 80.137 93.7217 79.723C93.7217 79.363 93.8207 79.018 94.0187 78.688C94.2167 78.352 94.5377 78.055 94.9817 77.797C95.4257 77.539 96.0047 77.329 96.7187 77.167C97.4327 76.999 98.3087 76.903 99.3467 76.879V76.168C99.3467 75.46 99.1937 74.926 98.8877 74.566C98.5817 74.2 98.1347 74.017 97.5467 74.017C97.1507 74.017 96.8177 74.068 96.5477 74.17C96.2837 74.266 96.0527 74.377 95.8547 74.503C95.6627 74.623 95.4947 74.734 95.3507 74.836C95.2127 74.932 95.0747 74.98 94.9367 74.98C94.8287 74.98 94.7357 74.953 94.6577 74.899C94.5797 74.839 94.5137 74.767 94.4597 74.683L94.1717 74.17ZM105.009 68.743V82H103.407V68.743H105.009Z" fill="#7F8489"/>
<defs>
<filter id="filter0_dd" x="0.75293" y="0.754944" width="169.491" height="169.491" filterUnits="userSpaceOnUse" color-interpolation-filters="sRGB">
<feFlood flood-opacity="0" result="BackgroundImageFix"/>
<feColorMatrix in="SourceAlpha" type="matrix" values="0 0 0 0 0 0 0 0 0 0 0 0 0 0 0 0 0 0 127 0"/>
<feOffset dx="-7" dy="-7"/>
<feGaussianBlur stdDeviation="15"/>
<feColorMatrix type="matrix" values="0 0 0 0 0.14902 0 0 0 0 0.180392 0 0 0 0 0.196078 0 0 0 1 0"/>
<feBlend mode="normal" in2="BackgroundImageFix" result="effect1_dropShadow"/>
<feColorMatrix in="SourceAlpha" type="matrix" values="0 0 0 0 0 0 0 0 0 0 0 0 0 0 0 0 0 0 127 0"/>
<feOffset dx="14" dy="14"/>
<feGaussianBlur stdDeviation="20"/>
<feColorMatrix type="matrix" values="0 0 0 0 0.0646354 0 0 0 0 0.0646354 0 0 0 0 0.0708333 0 0 0 0.75 0"/>
<feBlend mode="normal" in2="effect1_dropShadow" result="effect2_dropShadow"/>
<feBlend mode="normal" in="SourceGraphic" in2="effect2_dropShadow" result="shape"/>
</filter>
<filter id="filter1_i" x="40.9991" y="41.0013" width="72" height="72" filterUnits="userSpaceOnUse" color-interpolation-filters="sRGB">
<feFlood flood-opacity="0" result="BackgroundImageFix"/>
<feBlend mode="normal" in="SourceGraphic" in2="BackgroundImageFix" result="shape"/>
<feColorMatrix in="SourceAlpha" type="matrix" values="0 0 0 0 0 0 0 0 0 0 0 0 0 0 0 0 0 0 127 0" result="hardAlpha"/>
<feOffset/>
<feGaussianBlur stdDeviation="1.5"/>
<feComposite in2="hardAlpha" operator="arithmetic" k2="-1" k3="1"/>
<feColorMatrix type="matrix" values="0 0 0 0 0.245833 0 0 0 0 0.245833 0 0 0 0 0.245833 0 0 0 0.45 0"/>
<feBlend mode="normal" in2="shape" result="effect1_innerShadow"/>
</filter>
<filter id="filter2_f" x="39.9991" y="40.0013" width="74" height="74" filterUnits="userSpaceOnUse" color-interpolation-filters="sRGB">
<feFlood flood-opacity="0" result="BackgroundImageFix"/>
<feBlend mode="normal" in="SourceGraphic" in2="BackgroundImageFix" result="shape"/>
<feGaussianBlur stdDeviation="0.5" result="effect1_foregroundBlur"/>
</filter>
<linearGradient id="paint0_linear" x1="181.355" y1="185.817" x2="128.731" y2="126.949" gradientUnits="userSpaceOnUse">
<stop stop-color="#1D2328"/>
<stop offset="1" stop-color="#131314"/>
</linearGradient>
<linearGradient id="paint1_linear" x1="183.364" y1="187.909" x2="129.727" y2="127.909" gradientUnits="userSpaceOnUse">
<stop stop-color="#1D2328"/>
<stop offset="1" stop-color="#131314"/>
</linearGradient>
<linearGradient id="paint2_linear" x1="172.399" y1="176.001" x2="127.399" y2="121.101" gradientUnits="userSpaceOnUse">
<stop stop-color="#2F353A"/>
<stop offset="1" stop-color="#1C1F22"/>
</linearGradient>
<linearGradient id="paint3_linear" x1="172.399" y1="176.001" x2="127.399" y2="121.101" gradientUnits="userSpaceOnUse">
<stop stop-color="#2F353A"/>
<stop offset="1" stop-color="#1C1F22"/>
</linearGradient>
</defs>
</svg>
