<svg width="226" height="236" viewBox="0 0 226 236" fill="none" xmlns="http://www.w3.org/2000/svg">
<g filter="url(#filter0_dd)">
<rect x="176" y="181" width="126" height="126" rx="63" transform="rotate(-180 176 181)" fill="url(#paint0_linear)"/>
</g>
<g filter="url(#filter1_f)">
<rect x="177" y="182" width="128" height="128" rx="64" transform="rotate(-180 177 182)" fill="url(#paint1_linear)"/>
</g>
<rect x="172.5" y="177.5" width="119" height="119" rx="59.5" transform="rotate(-180 172.5 177.5)" fill="url(#paint2_linear)" stroke="#058DD9"/>
<g filter="url(#filter2_f)">
<rect x="173" y="178" width="120" height="120" rx="60" transform="rotate(-180 173 178)" fill="url(#paint3_linear)"/>
</g>
<path d="M97.8739 105.882V132H93.1039V115.962C93.1039 115.626 93.1099 115.266 93.1219 114.882C93.1459 114.498 93.1819 114.108 93.2299 113.712L85.7599 127.878C85.3519 128.658 84.7219 129.048 83.8699 129.048H83.1139C82.6939 129.048 82.3219 128.952 81.9979 128.76C81.6739 128.556 81.4159 128.262 81.2239 127.878L73.7179 113.658C73.7539 114.078 73.7839 114.486 73.8079 114.882C73.8319 115.266 73.8439 115.626 73.8439 115.962V132H69.0739V105.882H73.1779C73.4059 105.882 73.6099 105.888 73.7899 105.9C73.9699 105.912 74.1259 105.948 74.2579 106.008C74.4019 106.056 74.5279 106.14 74.6359 106.26C74.7559 106.368 74.8699 106.524 74.9779 106.728L82.2859 120.66C82.5139 121.08 82.7239 121.512 82.9159 121.956C83.1199 122.4 83.3119 122.856 83.4919 123.324C83.6719 122.844 83.8579 122.376 84.0499 121.92C84.2539 121.464 84.4699 121.026 84.6979 120.606L91.9519 106.728C92.0599 106.524 92.1739 106.368 92.2939 106.26C92.4139 106.14 92.5399 106.056 92.6719 106.008C92.8159 105.948 92.9719 105.912 93.1399 105.9C93.3199 105.888 93.5299 105.882 93.7699 105.882H97.8739ZM110.44 113.154C111.832 113.154 113.098 113.376 114.238 113.82C115.378 114.264 116.356 114.9 117.172 115.728C117.988 116.544 118.618 117.54 119.062 118.716C119.506 119.892 119.728 121.218 119.728 122.694C119.728 124.17 119.506 125.502 119.062 126.69C118.618 127.866 117.988 128.868 117.172 129.696C116.356 130.524 115.378 131.16 114.238 131.604C113.098 132.048 111.832 132.27 110.44 132.27C109.036 132.27 107.758 132.048 106.606 131.604C105.466 131.16 104.488 130.524 103.672 129.696C102.856 128.868 102.22 127.866 101.764 126.69C101.32 125.502 101.098 124.17 101.098 122.694C101.098 121.218 101.32 119.892 101.764 118.716C102.22 117.54 102.856 116.544 103.672 115.728C104.488 114.9 105.466 114.264 106.606 113.82C107.758 113.376 109.036 113.154 110.44 113.154ZM110.44 128.544C111.856 128.544 112.906 128.058 113.59 127.086C114.274 126.102 114.616 124.644 114.616 122.712C114.616 120.792 114.274 119.346 113.59 118.374C112.906 117.39 111.856 116.898 110.44 116.898C108.988 116.898 107.92 117.39 107.236 118.374C106.552 119.346 106.21 120.792 106.21 122.712C106.21 124.644 106.552 126.102 107.236 127.086C107.92 128.058 108.988 128.544 110.44 128.544ZM134.313 118.266C133.845 117.726 133.335 117.348 132.783 117.132C132.243 116.916 131.667 116.808 131.055 116.808C130.455 116.808 129.909 116.922 129.417 117.15C128.925 117.378 128.499 117.738 128.139 118.23C127.791 118.71 127.521 119.328 127.329 120.084C127.137 120.84 127.041 121.74 127.041 122.784C127.041 123.816 127.119 124.692 127.275 125.412C127.431 126.132 127.653 126.714 127.941 127.158C128.241 127.602 128.601 127.926 129.021 128.13C129.441 128.322 129.909 128.418 130.425 128.418C131.301 128.418 132.033 128.244 132.621 127.896C133.221 127.548 133.785 127.056 134.313 126.42V118.266ZM139.281 105.162V132H136.221C135.585 132 135.177 131.712 134.997 131.136L134.583 129.516C134.211 129.924 133.815 130.296 133.395 130.632C132.987 130.968 132.543 131.262 132.063 131.514C131.583 131.754 131.067 131.94 130.515 132.072C129.963 132.204 129.363 132.27 128.715 132.27C127.719 132.27 126.807 132.06 125.979 131.64C125.151 131.22 124.431 130.608 123.819 129.804C123.219 128.988 122.751 127.992 122.415 126.816C122.079 125.64 121.911 124.296 121.911 122.784C121.911 121.404 122.097 120.12 122.469 118.932C122.853 117.744 123.393 116.718 124.089 115.854C124.785 114.99 125.625 114.312 126.609 113.82C127.593 113.328 128.685 113.082 129.885 113.082C130.893 113.082 131.739 113.232 132.423 113.532C133.119 113.832 133.749 114.24 134.313 114.756V105.162H139.281ZM155.185 120.534C155.185 120.018 155.113 119.526 154.969 119.058C154.837 118.59 154.621 118.176 154.321 117.816C154.021 117.456 153.643 117.174 153.187 116.97C152.731 116.754 152.185 116.646 151.549 116.646C150.361 116.646 149.431 116.982 148.759 117.654C148.087 118.326 147.649 119.286 147.445 120.534H155.185ZM147.373 123.486C147.529 125.226 148.021 126.498 148.849 127.302C149.689 128.106 150.781 128.508 152.125 128.508C152.809 128.508 153.397 128.43 153.889 128.274C154.393 128.106 154.831 127.926 155.203 127.734C155.587 127.53 155.929 127.35 156.229 127.194C156.541 127.026 156.847 126.942 157.147 126.942C157.531 126.942 157.831 127.086 158.047 127.374L159.487 129.174C158.959 129.786 158.377 130.296 157.741 130.704C157.105 131.1 156.445 131.418 155.761 131.658C155.077 131.886 154.387 132.042 153.691 132.126C152.995 132.222 152.323 132.27 151.675 132.27C150.379 132.27 149.167 132.06 148.039 131.64C146.923 131.208 145.945 130.578 145.105 129.75C144.277 128.91 143.623 127.872 143.143 126.636C142.663 125.4 142.423 123.966 142.423 122.334C142.423 121.074 142.627 119.886 143.035 118.77C143.455 117.654 144.055 116.682 144.835 115.854C145.615 115.026 146.563 114.372 147.679 113.892C148.795 113.4 150.055 113.154 151.459 113.154C152.647 113.154 153.739 113.346 154.735 113.73C155.743 114.102 156.607 114.648 157.327 115.368C158.059 116.088 158.623 116.976 159.019 118.032C159.427 119.076 159.631 120.27 159.631 121.614C159.631 121.986 159.613 122.292 159.577 122.532C159.541 122.772 159.481 122.964 159.397 123.108C159.313 123.252 159.199 123.354 159.055 123.414C158.911 123.462 158.725 123.486 158.497 123.486H147.373Z" fill="#E6E6E6"/>
<defs>
<filter id="filter0_dd" x="0" y="0" width="226" height="236" filterUnits="userSpaceOnUse" color-interpolation-filters="sRGB">
<feFlood flood-opacity="0" result="BackgroundImageFix"/>
<feColorMatrix in="SourceAlpha" type="matrix" values="0 0 0 0 0 0 0 0 0 0 0 0 0 0 0 0 0 0 127 0"/>
<feOffset dx="-10" dy="-15"/>
<feGaussianBlur stdDeviation="20"/>
<feColorMatrix type="matrix" values="0 0 0 0 0.183073 0 0 0 0 0.224583 0 0 0 0 0.2375 0 0 0 1 0"/>
<feBlend mode="normal" in2="BackgroundImageFix" result="effect1_dropShadow"/>
<feColorMatrix in="SourceAlpha" type="matrix" values="0 0 0 0 0 0 0 0 0 0 0 0 0 0 0 0 0 0 127 0"/>
<feOffset dx="10" dy="15"/>
<feGaussianBlur stdDeviation="20"/>
<feColorMatrix type="matrix" values="0 0 0 0 0 0 0 0 0 0 0 0 0 0 0 0 0 0 1 0"/>
<feBlend mode="normal" in2="effect1_dropShadow" result="effect2_dropShadow"/>
<feBlend mode="normal" in="SourceGraphic" in2="effect2_dropShadow" result="shape"/>
</filter>
<filter id="filter1_f" x="48" y="53" width="130" height="130" filterUnits="userSpaceOnUse" color-interpolation-filters="sRGB">
<feFlood flood-opacity="0" result="BackgroundImageFix"/>
<feBlend mode="normal" in="SourceGraphic" in2="BackgroundImageFix" result="shape"/>
<feGaussianBlur stdDeviation="0.5" result="effect1_foregroundBlur"/>
</filter>
<filter id="filter2_f" x="52" y="57" width="122" height="122" filterUnits="userSpaceOnUse" color-interpolation-filters="sRGB">
<feFlood flood-opacity="0" result="BackgroundImageFix"/>
<feBlend mode="normal" in="SourceGraphic" in2="BackgroundImageFix" result="shape"/>
<feGaussianBlur stdDeviation="0.5" result="effect1_foregroundBlur"/>
</filter>
<linearGradient id="paint0_linear" x1="280.523" y1="292.682" x2="196.045" y2="198.182" gradientUnits="userSpaceOnUse">
<stop stop-color="#11A8FD"/>
<stop offset="1" stop-color="#0081C9"/>
</linearGradient>
<linearGradient id="paint1_linear" x1="282.6" y1="294" x2="202.6" y2="196.4" gradientUnits="userSpaceOnUse">
<stop stop-color="#11A8FD"/>
<stop offset="1" stop-color="#0081C9"/>
</linearGradient>
<linearGradient id="paint2_linear" x1="272" y1="283" x2="197" y2="191.5" gradientUnits="userSpaceOnUse">
<stop stop-color="#005EA3"/>
<stop offset="1" stop-color="#11A8FD"/>
</linearGradient>
<linearGradient id="paint3_linear" x1="272" y1="283" x2="197" y2="191.5" gradientUnits="userSpaceOnUse">
<stop stop-color="#005EA3"/>
<stop offset="1" stop-color="#11A8FD"/>
</linearGradient>
</defs>
</svg>
