<svg width="226" height="236" viewBox="0 0 226 236" fill="none" xmlns="http://www.w3.org/2000/svg">
<g filter="url(#filter0_dd)">
<rect x="176" y="181" width="126" height="126" rx="63" transform="rotate(-180 176 181)" fill="url(#paint0_linear)"/>
</g>
<g filter="url(#filter1_f)">
<rect x="177" y="182" width="128" height="128" rx="64" transform="rotate(-180 177 182)" fill="url(#paint1_linear)"/>
</g>
<rect x="172.5" y="177.5" width="119" height="119" rx="59.5" transform="rotate(-180 172.5 177.5)" fill="url(#paint2_linear)" stroke="#058DD9"/>
<g filter="url(#filter2_f)">
<rect x="173" y="178" width="120" height="120" rx="60" transform="rotate(-180 173 178)" fill="url(#paint3_linear)"/>
</g>
<path d="M73.0951 118.878C74.7871 118.878 76.0231 118.47 76.8031 117.654C77.5951 116.838 77.9911 115.722 77.9911 114.306C77.9911 113.658 77.8891 113.07 77.6851 112.542C77.4931 112.002 77.1931 111.546 76.7851 111.174C76.3891 110.79 75.8851 110.496 75.2731 110.292C74.6611 110.088 73.9351 109.986 73.0951 109.986H69.6751V118.878H73.0951ZM73.0951 105.882C74.8831 105.882 76.4251 106.092 77.7211 106.512C79.0291 106.932 80.1031 107.52 80.9431 108.276C81.7831 109.02 82.4011 109.908 82.7971 110.94C83.2051 111.972 83.4091 113.094 83.4091 114.306C83.4091 115.59 83.1991 116.766 82.7791 117.834C82.3591 118.902 81.7231 119.82 80.8711 120.588C80.0191 121.356 78.9451 121.956 77.6491 122.388C76.3531 122.808 74.8351 123.018 73.0951 123.018H69.6751V132H64.2751V105.882H73.0951ZM93.7228 113.154C95.1148 113.154 96.3808 113.376 97.5208 113.82C98.6608 114.264 99.6388 114.9 100.455 115.728C101.271 116.544 101.901 117.54 102.345 118.716C102.789 119.892 103.011 121.218 103.011 122.694C103.011 124.17 102.789 125.502 102.345 126.69C101.901 127.866 101.271 128.868 100.455 129.696C99.6388 130.524 98.6608 131.16 97.5208 131.604C96.3808 132.048 95.1148 132.27 93.7228 132.27C92.3188 132.27 91.0408 132.048 89.8888 131.604C88.7488 131.16 87.7708 130.524 86.9548 129.696C86.1388 128.868 85.5028 127.866 85.0468 126.69C84.6028 125.502 84.3808 124.17 84.3808 122.694C84.3808 121.218 84.6028 119.892 85.0468 118.716C85.5028 117.54 86.1388 116.544 86.9548 115.728C87.7708 114.9 88.7488 114.264 89.8888 113.82C91.0408 113.376 92.3188 113.154 93.7228 113.154ZM93.7228 128.544C95.1388 128.544 96.1888 128.058 96.8728 127.086C97.5568 126.102 97.8988 124.644 97.8988 122.712C97.8988 120.792 97.5568 119.346 96.8728 118.374C96.1888 117.39 95.1388 116.898 93.7228 116.898C92.2708 116.898 91.2028 117.39 90.5188 118.374C89.8348 119.346 89.4928 120.792 89.4928 122.712C89.4928 124.644 89.8348 126.102 90.5188 127.086C91.2028 128.058 92.2708 128.544 93.7228 128.544ZM132.688 113.442L126.856 132H122.842C122.638 132 122.452 131.934 122.284 131.802C122.128 131.67 122.008 131.448 121.924 131.136L118.9 121.092C118.78 120.708 118.672 120.33 118.576 119.958C118.492 119.574 118.414 119.19 118.342 118.806C118.258 119.19 118.168 119.58 118.072 119.976C117.988 120.36 117.886 120.744 117.766 121.128L114.706 131.136C114.538 131.712 114.178 132 113.626 132H109.81L103.978 113.442H107.938C108.298 113.442 108.598 113.526 108.838 113.694C109.09 113.862 109.258 114.078 109.342 114.342L111.628 123.522C111.772 124.11 111.898 124.68 112.006 125.232C112.114 125.784 112.216 126.33 112.312 126.87C112.456 126.33 112.606 125.784 112.762 125.232C112.93 124.68 113.104 124.11 113.284 123.522L116.002 114.306C116.086 114.054 116.248 113.844 116.488 113.676C116.728 113.508 117.01 113.424 117.334 113.424H119.53C119.878 113.424 120.172 113.508 120.412 113.676C120.664 113.844 120.832 114.054 120.916 114.306L123.544 123.522C123.712 124.098 123.874 124.668 124.03 125.232C124.186 125.784 124.33 126.342 124.462 126.906C124.558 126.354 124.66 125.802 124.768 125.25C124.888 124.686 125.026 124.11 125.182 123.522L127.576 114.342C127.66 114.078 127.822 113.862 128.062 113.694C128.302 113.526 128.584 113.442 128.908 113.442H132.688ZM146.414 120.534C146.414 120.018 146.342 119.526 146.198 119.058C146.066 118.59 145.85 118.176 145.55 117.816C145.25 117.456 144.872 117.174 144.416 116.97C143.96 116.754 143.414 116.646 142.778 116.646C141.59 116.646 140.66 116.982 139.988 117.654C139.316 118.326 138.878 119.286 138.674 120.534H146.414ZM138.602 123.486C138.758 125.226 139.25 126.498 140.078 127.302C140.918 128.106 142.01 128.508 143.354 128.508C144.038 128.508 144.626 128.43 145.118 128.274C145.622 128.106 146.06 127.926 146.432 127.734C146.816 127.53 147.158 127.35 147.458 127.194C147.77 127.026 148.076 126.942 148.376 126.942C148.76 126.942 149.06 127.086 149.276 127.374L150.716 129.174C150.188 129.786 149.606 130.296 148.97 130.704C148.334 131.1 147.674 131.418 146.99 131.658C146.306 131.886 145.616 132.042 144.92 132.126C144.224 132.222 143.552 132.27 142.904 132.27C141.608 132.27 140.396 132.06 139.268 131.64C138.152 131.208 137.174 130.578 136.334 129.75C135.506 128.91 134.852 127.872 134.372 126.636C133.892 125.4 133.652 123.966 133.652 122.334C133.652 121.074 133.856 119.886 134.264 118.77C134.684 117.654 135.284 116.682 136.064 115.854C136.844 115.026 137.792 114.372 138.908 113.892C140.024 113.4 141.284 113.154 142.688 113.154C143.876 113.154 144.968 113.346 145.964 113.73C146.972 114.102 147.836 114.648 148.556 115.368C149.288 116.088 149.852 116.976 150.248 118.032C150.656 119.076 150.86 120.27 150.86 121.614C150.86 121.986 150.842 122.292 150.806 122.532C150.77 122.772 150.71 122.964 150.626 123.108C150.542 123.252 150.428 123.354 150.284 123.414C150.14 123.462 149.954 123.486 149.726 123.486H138.602ZM158.605 116.502C159.193 115.446 159.871 114.612 160.639 114C161.407 113.388 162.307 113.082 163.339 113.082C164.179 113.082 164.863 113.28 165.391 113.676L165.067 117.348C165.007 117.588 164.911 117.756 164.779 117.852C164.659 117.936 164.491 117.978 164.275 117.978C164.083 117.978 163.807 117.954 163.447 117.906C163.087 117.846 162.751 117.816 162.439 117.816C161.983 117.816 161.575 117.882 161.215 118.014C160.867 118.146 160.555 118.332 160.279 118.572C160.003 118.812 159.751 119.106 159.523 119.454C159.307 119.802 159.103 120.198 158.911 120.642V132H153.943V113.442H156.877C157.381 113.442 157.729 113.532 157.921 113.712C158.113 113.892 158.251 114.204 158.335 114.648L158.605 116.502Z" fill="#E6E6E6"/>
<defs>
<filter id="filter0_dd" x="0" y="0" width="226" height="236" filterUnits="userSpaceOnUse" color-interpolation-filters="sRGB">
<feFlood flood-opacity="0" result="BackgroundImageFix"/>
<feColorMatrix in="SourceAlpha" type="matrix" values="0 0 0 0 0 0 0 0 0 0 0 0 0 0 0 0 0 0 127 0"/>
<feOffset dx="-10" dy="-15"/>
<feGaussianBlur stdDeviation="20"/>
<feColorMatrix type="matrix" values="0 0 0 0 0.183073 0 0 0 0 0.224583 0 0 0 0 0.2375 0 0 0 1 0"/>
<feBlend mode="normal" in2="BackgroundImageFix" result="effect1_dropShadow"/>
<feColorMatrix in="SourceAlpha" type="matrix" values="0 0 0 0 0 0 0 0 0 0 0 0 0 0 0 0 0 0 127 0"/>
<feOffset dx="10" dy="15"/>
<feGaussianBlur stdDeviation="20"/>
<feColorMatrix type="matrix" values="0 0 0 0 0 0 0 0 0 0 0 0 0 0 0 0 0 0 1 0"/>
<feBlend mode="normal" in2="effect1_dropShadow" result="effect2_dropShadow"/>
<feBlend mode="normal" in="SourceGraphic" in2="effect2_dropShadow" result="shape"/>
</filter>
<filter id="filter1_f" x="48" y="53" width="130" height="130" filterUnits="userSpaceOnUse" color-interpolation-filters="sRGB">
<feFlood flood-opacity="0" result="BackgroundImageFix"/>
<feBlend mode="normal" in="SourceGraphic" in2="BackgroundImageFix" result="shape"/>
<feGaussianBlur stdDeviation="0.5" result="effect1_foregroundBlur"/>
</filter>
<filter id="filter2_f" x="52" y="57" width="122" height="122" filterUnits="userSpaceOnUse" color-interpolation-filters="sRGB">
<feFlood flood-opacity="0" result="BackgroundImageFix"/>
<feBlend mode="normal" in="SourceGraphic" in2="BackgroundImageFix" result="shape"/>
<feGaussianBlur stdDeviation="0.5" result="effect1_foregroundBlur"/>
</filter>
<linearGradient id="paint0_linear" x1="280.523" y1="292.682" x2="196.045" y2="198.182" gradientUnits="userSpaceOnUse">
<stop stop-color="#11A8FD"/>
<stop offset="1" stop-color="#0081C9"/>
</linearGradient>
<linearGradient id="paint1_linear" x1="282.6" y1="294" x2="202.6" y2="196.4" gradientUnits="userSpaceOnUse">
<stop stop-color="#11A8FD"/>
<stop offset="1" stop-color="#0081C9"/>
</linearGradient>
<linearGradient id="paint2_linear" x1="272" y1="283" x2="197" y2="191.5" gradientUnits="userSpaceOnUse">
<stop stop-color="#005EA3"/>
<stop offset="1" stop-color="#11A8FD"/>
</linearGradient>
<linearGradient id="paint3_linear" x1="272" y1="283" x2="197" y2="191.5" gradientUnits="userSpaceOnUse">
<stop stop-color="#005EA3"/>
<stop offset="1" stop-color="#11A8FD"/>
</linearGradient>
</defs>
</svg>
