<svg width="170" height="190" viewBox="0 0 170 190" fill="none" xmlns="http://www.w3.org/2000/svg">
<g filter="url(#filter0_dd)">
<rect x="129.375" y="134.375" width="78.75" height="78.75" rx="39.375" transform="rotate(-180 129.375 134.375)" fill="url(#paint0_linear)"/>
</g>
<g filter="url(#filter1_f)">
<rect x="130" y="135" width="80.0001" height="80" rx="40" transform="rotate(-180 130 135)" fill="url(#paint1_linear)"/>
</g>
<rect x="127" y="132" width="74" height="74" rx="37" transform="rotate(-180 127 132)" fill="url(#paint2_linear)" stroke="#058DD9"/>
<g filter="url(#filter2_f)">
<rect x="127.5" y="132.5" width="75" height="75" rx="37.5" transform="rotate(-180 127.5 132.5)" fill="url(#paint3_linear)"/>
</g>
<g filter="url(#filter3_dd)">
<path d="M89.7892 85C88.8198 85 88.0312 85.7886 88.0312 86.758V93.8289C88.0312 94.7983 88.8198 95.5868 89.7892 95.5868C90.7586 95.5868 91.5472 94.7983 91.5472 93.8289V86.758C91.5472 85.7886 90.7586 85 89.7892 85Z" fill="white"/>
<path d="M95.6724 89.6465C94.9326 88.9792 93.8559 89.0551 93.2099 89.7197C92.5602 90.388 92.51 91.5199 93.3331 92.2703C94.6393 93.4576 95.2996 95.257 94.9868 97.0722C94.5623 99.5357 92.4197 101.477 89.7895 101.483C87.0954 101.489 85.0314 99.4997 84.6056 97.162C84.2737 95.3359 84.8861 93.5076 86.2452 92.2715C87.0659 91.5243 87.023 90.3874 86.3715 89.7183C85.7244 89.0538 84.6412 88.982 83.8949 89.6574C81.8282 91.5294 80.7494 94.2968 81.0495 97.1019C81.5268 101.562 85.2926 105 89.8102 105C94.2761 105 97.9327 101.554 98.4965 97.3925C98.8896 94.4929 97.8338 91.5973 95.6724 89.6465Z" fill="white"/>
</g>
<defs>
<filter id="filter0_dd" x="0.625" y="0.625" width="178.75" height="188.75" filterUnits="userSpaceOnUse" color-interpolation-filters="sRGB">
<feFlood flood-opacity="0" result="BackgroundImageFix"/>
<feColorMatrix in="SourceAlpha" type="matrix" values="0 0 0 0 0 0 0 0 0 0 0 0 0 0 0 0 0 0 127 0"/>
<feOffset dx="-10" dy="-15"/>
<feGaussianBlur stdDeviation="20"/>
<feColorMatrix type="matrix" values="0 0 0 0 0.322361 0 0 0 0 0.348206 0 0 0 0 0.366667 0 0 0 0.5 0"/>
<feBlend mode="normal" in2="BackgroundImageFix" result="effect1_dropShadow"/>
<feColorMatrix in="SourceAlpha" type="matrix" values="0 0 0 0 0 0 0 0 0 0 0 0 0 0 0 0 0 0 127 0"/>
<feOffset dx="10" dy="15"/>
<feGaussianBlur stdDeviation="20"/>
<feColorMatrix type="matrix" values="0 0 0 0 0 0 0 0 0 0 0 0 0 0 0 0 0 0 0.5 0"/>
<feBlend mode="normal" in2="effect1_dropShadow" result="effect2_dropShadow"/>
<feBlend mode="normal" in="SourceGraphic" in2="effect2_dropShadow" result="shape"/>
</filter>
<filter id="filter1_f" x="49" y="54" width="82.0001" height="82" filterUnits="userSpaceOnUse" color-interpolation-filters="sRGB">
<feFlood flood-opacity="0" result="BackgroundImageFix"/>
<feBlend mode="normal" in="SourceGraphic" in2="BackgroundImageFix" result="shape"/>
<feGaussianBlur stdDeviation="0.5" result="effect1_foregroundBlur"/>
</filter>
<filter id="filter2_f" x="51.5" y="56.5" width="77.0001" height="77" filterUnits="userSpaceOnUse" color-interpolation-filters="sRGB">
<feFlood flood-opacity="0" result="BackgroundImageFix"/>
<feBlend mode="normal" in="SourceGraphic" in2="BackgroundImageFix" result="shape"/>
<feGaussianBlur stdDeviation="0.5" result="effect1_foregroundBlur"/>
</filter>
<filter id="filter3_dd" x="56" y="60" width="67.5774" height="69.9997" filterUnits="userSpaceOnUse" color-interpolation-filters="sRGB">
<feFlood flood-opacity="0" result="BackgroundImageFix"/>
<feColorMatrix in="SourceAlpha" type="matrix" values="0 0 0 0 0 0 0 0 0 0 0 0 0 0 0 0 0 0 127 0"/>
<feOffset/>
<feGaussianBlur stdDeviation="12.5"/>
<feColorMatrix type="matrix" values="0 0 0 0 0.14902 0 0 0 0 0.670588 0 0 0 0 0.968627 0 0 0 0.2 0"/>
<feBlend mode="normal" in2="BackgroundImageFix" result="effect1_dropShadow"/>
<feColorMatrix in="SourceAlpha" type="matrix" values="0 0 0 0 0 0 0 0 0 0 0 0 0 0 0 0 0 0 127 0"/>
<feOffset/>
<feGaussianBlur stdDeviation="5"/>
<feColorMatrix type="matrix" values="0 0 0 0 0.3875 0 0 0 0 0.811538 0 0 0 0 1 0 0 0 0.5 0"/>
<feBlend mode="normal" in2="effect1_dropShadow" result="effect2_dropShadow"/>
<feBlend mode="normal" in="SourceGraphic" in2="effect2_dropShadow" result="shape"/>
</filter>
<linearGradient id="paint0_linear" x1="194.702" y1="204.176" x2="141.903" y2="145.114" gradientUnits="userSpaceOnUse">
<stop stop-color="#11A8FD"/>
<stop offset="1" stop-color="#0081C9"/>
</linearGradient>
<linearGradient id="paint1_linear" x1="196" y1="205" x2="146" y2="144" gradientUnits="userSpaceOnUse">
<stop stop-color="#11A8FD"/>
<stop offset="1" stop-color="#0081C9"/>
</linearGradient>
<linearGradient id="paint2_linear" x1="189.375" y1="198.125" x2="142.5" y2="140.938" gradientUnits="userSpaceOnUse">
<stop stop-color="#005EA3"/>
<stop offset="1" stop-color="#11A8FD"/>
</linearGradient>
<linearGradient id="paint3_linear" x1="189.375" y1="198.125" x2="142.5" y2="140.938" gradientUnits="userSpaceOnUse">
<stop stop-color="#016BB8"/>
<stop offset="1" stop-color="#11A8FD"/>
</linearGradient>
</defs>
</svg>
