<svg width="135" height="135" viewBox="0 0 135 135" fill="none" xmlns="http://www.w3.org/2000/svg">
<g filter="url(#filter0_d)">
<g filter="url(#filter1_dd)">
<rect x="98" y="98" width="61" height="61" rx="30" transform="rotate(180 98 98)" fill="url(#paint0_linear)"/>
</g>
<g filter="url(#filter2_f)">
<rect x="99" y="99" width="63" height="63" rx="30" transform="rotate(180 99 99)" fill="url(#paint1_linear)"/>
</g>
<rect x="95.9996" y="95.9996" width="57" height="57" rx="28.5" transform="rotate(180 95.9996 95.9996)" fill="url(#paint2_linear)"/>
<g filter="url(#filter3_f)">
<rect x="96" y="96" width="57" height="57" rx="28.5" transform="rotate(180 96 96)" fill="url(#paint3_linear)"/>
</g>
<path d="M67.168 69.666C68.5487 69.666 69.668 68.5467 69.668 67.166C69.668 65.7853 68.5487 64.666 67.168 64.666C65.7873 64.666 64.668 65.7853 64.668 67.166C64.668 68.5467 65.7873 69.666 67.168 69.666Z" stroke="#7F8489" stroke-width="2" stroke-linecap="round" stroke-linejoin="round"/>
<path d="M73.3333 69.6667C73.2224 69.918 73.1893 70.1968 73.2383 70.4672C73.2873 70.7375 73.4162 70.9869 73.6083 71.1833L73.6583 71.2333C73.8133 71.3881 73.9362 71.5719 74.0201 71.7743C74.104 71.9766 74.1471 72.1935 74.1471 72.4125C74.1471 72.6315 74.104 72.8484 74.0201 73.0507C73.9362 73.2531 73.8133 73.4369 73.6583 73.5917C73.5035 73.7466 73.3197 73.8696 73.1174 73.9534C72.9151 74.0373 72.6982 74.0805 72.4792 74.0805C72.2601 74.0805 72.0433 74.0373 71.8409 73.9534C71.6386 73.8696 71.4548 73.7466 71.3 73.5917L71.25 73.5417C71.0536 73.3496 70.8042 73.2207 70.5338 73.1717C70.2635 73.1226 69.9847 73.1557 69.7333 73.2667C69.4869 73.3723 69.2767 73.5477 69.1286 73.7713C68.9805 73.9949 68.9011 74.2568 68.9 74.525V74.6667C68.9 75.1087 68.7244 75.5326 68.4118 75.8452C68.0993 76.1577 67.6754 76.3333 67.2333 76.3333C66.7913 76.3333 66.3674 76.1577 66.0548 75.8452C65.7423 75.5326 65.5667 75.1087 65.5667 74.6667V74.5917C65.5602 74.3158 65.4709 74.0483 65.3104 73.8239C65.1499 73.5995 64.9256 73.4286 64.6667 73.3333C64.4153 73.2224 64.1365 73.1893 63.8662 73.2383C63.5958 73.2873 63.3464 73.4162 63.15 73.6083L63.1 73.6583C62.9452 73.8133 62.7614 73.9362 62.5591 74.0201C62.3567 74.104 62.1399 74.1471 61.9208 74.1471C61.7018 74.1471 61.4849 74.104 61.2826 74.0201C61.0803 73.9362 60.8965 73.8133 60.7417 73.6583C60.5867 73.5035 60.4638 73.3197 60.3799 73.1174C60.296 72.9151 60.2529 72.6982 60.2529 72.4792C60.2529 72.2601 60.296 72.0433 60.3799 71.8409C60.4638 71.6386 60.5867 71.4548 60.7417 71.3L60.7917 71.25C60.9838 71.0536 61.1127 70.8042 61.1617 70.5338C61.2107 70.2635 61.1776 69.9847 61.0667 69.7333C60.961 69.4869 60.7856 69.2767 60.5621 69.1286C60.3385 68.9805 60.0765 68.9011 59.8083 68.9H59.6667C59.2246 68.9 58.8007 68.7244 58.4882 68.4118C58.1756 68.0993 58 67.6754 58 67.2333C58 66.7913 58.1756 66.3674 58.4882 66.0548C58.8007 65.7423 59.2246 65.5667 59.6667 65.5667H59.7417C60.0175 65.5602 60.285 65.4709 60.5094 65.3104C60.7338 65.1499 60.9048 64.9256 61 64.6667C61.1109 64.4153 61.144 64.1365 61.095 63.8662C61.046 63.5958 60.9171 63.3464 60.725 63.15L60.675 63.1C60.52 62.9452 60.3971 62.7614 60.3132 62.5591C60.2294 62.3567 60.1862 62.1399 60.1862 61.9208C60.1862 61.7018 60.2294 61.4849 60.3132 61.2826C60.3971 61.0803 60.52 60.8965 60.675 60.7417C60.8298 60.5867 61.0136 60.4638 61.2159 60.3799C61.4183 60.296 61.6351 60.2529 61.8542 60.2529C62.0732 60.2529 62.2901 60.296 62.4924 60.3799C62.6947 60.4638 62.8785 60.5867 63.0333 60.7417L63.0833 60.7917C63.2797 60.9838 63.5292 61.1127 63.7995 61.1617C64.0698 61.2107 64.3487 61.1776 64.6 61.0667H64.6667C64.9131 60.961 65.1233 60.7856 65.2714 60.5621C65.4195 60.3385 65.4989 60.0765 65.5 59.8083V59.6667C65.5 59.2246 65.6756 58.8007 65.9882 58.4882C66.3007 58.1756 66.7246 58 67.1667 58C67.6087 58 68.0326 58.1756 68.3452 58.4882C68.6577 58.8007 68.8333 59.2246 68.8333 59.6667V59.7417C68.8344 60.0098 68.9139 60.2718 69.0619 60.4954C69.21 60.719 69.4202 60.8944 69.6667 61C69.918 61.1109 70.1968 61.144 70.4672 61.095C70.7375 61.046 70.9869 60.9171 71.1833 60.725L71.2333 60.675C71.3881 60.52 71.5719 60.3971 71.7743 60.3132C71.9766 60.2294 72.1935 60.1862 72.4125 60.1862C72.6315 60.1862 72.8484 60.2294 73.0507 60.3132C73.2531 60.3971 73.4369 60.52 73.5917 60.675C73.7466 60.8298 73.8696 61.0136 73.9534 61.2159C74.0373 61.4183 74.0805 61.6351 74.0805 61.8542C74.0805 62.0732 74.0373 62.2901 73.9534 62.4924C73.8696 62.6947 73.7466 62.8785 73.5917 63.0333L73.5417 63.0833C73.3496 63.2797 73.2207 63.5292 73.1717 63.7995C73.1226 64.0698 73.1557 64.3487 73.2667 64.6V64.6667C73.3723 64.9131 73.5477 65.1233 73.7713 65.2714C73.9949 65.4195 74.2568 65.4989 74.525 65.5H74.6667C75.1087 65.5 75.5326 65.6756 75.8452 65.9882C76.1577 66.3007 76.3333 66.7246 76.3333 67.1667C76.3333 67.6087 76.1577 68.0326 75.8452 68.3452C75.5326 68.6577 75.1087 68.8333 74.6667 68.8333H74.5917C74.3235 68.8344 74.0615 68.9139 73.8379 69.0619C73.6144 69.21 73.439 69.4202 73.3333 69.6667V69.6667Z" stroke="#7F8489" stroke-width="2" stroke-linecap="round" stroke-linejoin="round"/>
</g>
<defs>
<filter id="filter0_d" x="32" y="36" width="71" height="71" filterUnits="userSpaceOnUse" color-interpolation-filters="sRGB">
<feFlood flood-opacity="0" result="BackgroundImageFix"/>
<feColorMatrix in="SourceAlpha" type="matrix" values="0 0 0 0 0 0 0 0 0 0 0 0 0 0 0 0 0 0 127 0"/>
<feOffset dy="4"/>
<feGaussianBlur stdDeviation="2"/>
<feColorMatrix type="matrix" values="0 0 0 0 0 0 0 0 0 0 0 0 0 0 0 0 0 0 0.25 0"/>
<feBlend mode="normal" in2="BackgroundImageFix" result="effect1_dropShadow"/>
<feBlend mode="normal" in="SourceGraphic" in2="effect1_dropShadow" result="shape"/>
</filter>
<filter id="filter1_dd" x="-5.72205e-06" y="0" width="135" height="135" filterUnits="userSpaceOnUse" color-interpolation-filters="sRGB">
<feFlood flood-opacity="0" result="BackgroundImageFix"/>
<feColorMatrix in="SourceAlpha" type="matrix" values="0 0 0 0 0 0 0 0 0 0 0 0 0 0 0 0 0 0 127 0"/>
<feOffset dx="-7" dy="-7"/>
<feGaussianBlur stdDeviation="15"/>
<feColorMatrix type="matrix" values="0 0 0 0 0.281875 0 0 0 0 0.314071 0 0 0 0 0.341667 0 0 0 1 0"/>
<feBlend mode="normal" in2="BackgroundImageFix" result="effect1_dropShadow"/>
<feColorMatrix in="SourceAlpha" type="matrix" values="0 0 0 0 0 0 0 0 0 0 0 0 0 0 0 0 0 0 127 0"/>
<feOffset dx="7" dy="7"/>
<feGaussianBlur stdDeviation="15"/>
<feColorMatrix type="matrix" values="0 0 0 0 0.120764 0 0 0 0 0.139321 0 0 0 0 0.154167 0 0 0 1 0"/>
<feBlend mode="normal" in2="effect1_dropShadow" result="effect2_dropShadow"/>
<feBlend mode="normal" in="SourceGraphic" in2="effect2_dropShadow" result="shape"/>
</filter>
<filter id="filter2_f" x="34" y="34" width="67" height="67" filterUnits="userSpaceOnUse" color-interpolation-filters="sRGB">
<feFlood flood-opacity="0" result="BackgroundImageFix"/>
<feBlend mode="normal" in="SourceGraphic" in2="BackgroundImageFix" result="shape"/>
<feGaussianBlur stdDeviation="1" result="effect1_foregroundBlur"/>
</filter>
<filter id="filter3_f" x="35" y="35" width="65" height="65" filterUnits="userSpaceOnUse" color-interpolation-filters="sRGB">
<feFlood flood-opacity="0" result="BackgroundImageFix"/>
<feBlend mode="normal" in="SourceGraphic" in2="BackgroundImageFix" result="shape"/>
<feGaussianBlur stdDeviation="2" result="effect1_foregroundBlur"/>
</filter>
<linearGradient id="paint0_linear" x1="148.602" y1="152.068" x2="107.705" y2="106.318" gradientUnits="userSpaceOnUse">
<stop stop-color="#2C3036"/>
<stop offset="1" stop-color="#31343C"/>
</linearGradient>
<linearGradient id="paint1_linear" x1="151.261" y1="154.841" x2="109.023" y2="107.591" gradientUnits="userSpaceOnUse">
<stop stop-color="#2C3036"/>
<stop offset="1" stop-color="#31343C"/>
</linearGradient>
<linearGradient id="paint2_linear" x1="143.025" y1="145.875" x2="107.4" y2="102.412" gradientUnits="userSpaceOnUse">
<stop stop-color="#2F353A"/>
<stop offset="1" stop-color="#1C1F22"/>
</linearGradient>
<linearGradient id="paint3_linear" x1="143.025" y1="145.875" x2="107.4" y2="102.413" gradientUnits="userSpaceOnUse">
<stop stop-color="#2F353A"/>
<stop offset="1" stop-color="#1C1F22"/>
</linearGradient>
</defs>
</svg>
