<svg width="226" height="236" viewBox="0 0 226 236" fill="none" xmlns="http://www.w3.org/2000/svg">
<g filter="url(#filter0_dd)">
<rect x="176" y="181" width="126" height="126" rx="63" transform="rotate(-180 176 181)" fill="url(#paint0_linear)"/>
</g>
<g filter="url(#filter1_f)">
<rect x="177" y="182" width="128" height="128" rx="64" transform="rotate(-180 177 182)" fill="url(#paint1_linear)"/>
</g>
<rect x="172.5" y="177.5" width="119" height="119" rx="59.5" transform="rotate(-180 172.5 177.5)" fill="url(#paint2_linear)" stroke="#058DD9"/>
<g filter="url(#filter2_f)">
<rect x="173" y="178" width="120" height="120" rx="60" transform="rotate(-180 173 178)" fill="url(#paint3_linear)"/>
</g>
<path d="M80.761 110.886C80.593 111.162 80.419 111.366 80.239 111.498C80.071 111.618 79.849 111.678 79.573 111.678C79.309 111.678 79.021 111.588 78.709 111.408C78.409 111.216 78.055 111.012 77.647 110.796C77.239 110.58 76.771 110.382 76.243 110.202C75.715 110.01 75.097 109.914 74.389 109.914C73.141 109.914 72.205 110.196 71.581 110.76C70.957 111.312 70.645 112.038 70.645 112.938C70.645 113.514 70.813 113.994 71.149 114.378C71.497 114.75 71.947 115.074 72.499 115.35C73.063 115.626 73.699 115.872 74.407 116.088C75.115 116.304 75.841 116.544 76.585 116.808C77.329 117.06 78.055 117.36 78.763 117.708C79.471 118.056 80.101 118.494 80.653 119.022C81.217 119.55 81.667 120.198 82.003 120.966C82.351 121.722 82.525 122.646 82.525 123.738C82.525 124.926 82.315 126.042 81.895 127.086C81.487 128.118 80.893 129.024 80.113 129.804C79.333 130.572 78.367 131.178 77.215 131.622C76.075 132.066 74.779 132.288 73.327 132.288C72.499 132.288 71.671 132.204 70.843 132.036C70.027 131.868 69.235 131.634 68.467 131.334C67.711 131.034 66.997 130.674 66.325 130.254C65.653 129.834 65.065 129.366 64.561 128.85L66.145 126.294C66.277 126.102 66.451 125.946 66.667 125.826C66.883 125.694 67.111 125.628 67.351 125.628C67.675 125.628 68.017 125.748 68.377 125.988C68.737 126.228 69.151 126.492 69.619 126.78C70.087 127.068 70.627 127.332 71.239 127.572C71.863 127.812 72.607 127.932 73.471 127.932C74.731 127.932 75.703 127.644 76.387 127.068C77.083 126.492 77.431 125.634 77.431 124.494C77.431 123.834 77.257 123.3 76.909 122.892C76.573 122.484 76.129 122.142 75.577 121.866C75.025 121.59 74.395 121.356 73.687 121.164C72.979 120.96 72.253 120.738 71.509 120.498C70.765 120.258 70.039 119.97 69.331 119.634C68.623 119.298 67.993 118.854 67.441 118.302C66.889 117.75 66.439 117.066 66.091 116.25C65.755 115.434 65.587 114.42 65.587 113.208C65.587 112.236 65.779 111.294 66.163 110.382C66.547 109.47 67.111 108.66 67.855 107.952C68.599 107.244 69.511 106.674 70.591 106.242C71.683 105.81 72.931 105.594 74.335 105.594C75.907 105.594 77.359 105.84 78.691 106.332C80.035 106.812 81.169 107.484 82.093 108.348L80.761 110.886ZM90.4087 127.104C90.8767 127.644 91.3807 128.022 91.9207 128.238C92.4727 128.454 93.0607 128.562 93.6847 128.562C94.2847 128.562 94.8307 128.448 95.3227 128.22C95.8147 127.992 96.2347 127.638 96.5827 127.158C96.9427 126.666 97.2187 126.042 97.4107 125.286C97.6027 124.53 97.6987 123.63 97.6987 122.586C97.6987 121.554 97.6147 120.678 97.4467 119.958C97.2907 119.238 97.0627 118.656 96.7627 118.212C96.4747 117.768 96.1207 117.45 95.7007 117.258C95.2807 117.054 94.8127 116.952 94.2967 116.952C93.4207 116.952 92.6827 117.126 92.0827 117.474C91.4947 117.81 90.9367 118.308 90.4087 118.968V127.104ZM90.1207 115.872C90.4927 115.464 90.8887 115.092 91.3087 114.756C91.7287 114.408 92.1787 114.114 92.6587 113.874C93.1387 113.622 93.6547 113.43 94.2067 113.298C94.7587 113.154 95.3587 113.082 96.0067 113.082C97.0027 113.082 97.9147 113.298 98.7427 113.73C99.5827 114.15 100.303 114.768 100.903 115.584C101.503 116.388 101.971 117.378 102.307 118.554C102.643 119.73 102.811 121.074 102.811 122.586C102.811 123.978 102.619 125.268 102.235 126.456C101.863 127.632 101.329 128.652 100.633 129.516C99.9367 130.38 99.0967 131.058 98.1127 131.55C97.1407 132.03 96.0547 132.27 94.8547 132.27C93.8467 132.27 92.9887 132.12 92.2807 131.82C91.5847 131.52 90.9607 131.112 90.4087 130.596V137.994H85.4407V113.442H88.5007C89.1247 113.442 89.5387 113.73 89.7427 114.306L90.1207 115.872ZM117.779 120.534C117.779 120.018 117.707 119.526 117.563 119.058C117.431 118.59 117.215 118.176 116.915 117.816C116.615 117.456 116.237 117.174 115.781 116.97C115.325 116.754 114.779 116.646 114.143 116.646C112.955 116.646 112.025 116.982 111.353 117.654C110.681 118.326 110.243 119.286 110.039 120.534H117.779ZM109.967 123.486C110.123 125.226 110.615 126.498 111.443 127.302C112.283 128.106 113.375 128.508 114.719 128.508C115.403 128.508 115.991 128.43 116.483 128.274C116.987 128.106 117.425 127.926 117.797 127.734C118.181 127.53 118.523 127.35 118.823 127.194C119.135 127.026 119.441 126.942 119.741 126.942C120.125 126.942 120.425 127.086 120.641 127.374L122.081 129.174C121.553 129.786 120.971 130.296 120.335 130.704C119.699 131.1 119.039 131.418 118.355 131.658C117.671 131.886 116.981 132.042 116.285 132.126C115.589 132.222 114.917 132.27 114.269 132.27C112.973 132.27 111.761 132.06 110.633 131.64C109.517 131.208 108.539 130.578 107.699 129.75C106.871 128.91 106.217 127.872 105.737 126.636C105.257 125.4 105.017 123.966 105.017 122.334C105.017 121.074 105.221 119.886 105.629 118.77C106.049 117.654 106.649 116.682 107.429 115.854C108.209 115.026 109.157 114.372 110.273 113.892C111.389 113.4 112.649 113.154 114.053 113.154C115.241 113.154 116.333 113.346 117.329 113.73C118.337 114.102 119.201 114.648 119.921 115.368C120.653 116.088 121.217 116.976 121.613 118.032C122.021 119.076 122.225 120.27 122.225 121.614C122.225 121.986 122.207 122.292 122.171 122.532C122.135 122.772 122.075 122.964 121.991 123.108C121.907 123.252 121.793 123.354 121.649 123.414C121.505 123.462 121.319 123.486 121.091 123.486H109.967ZM137.08 120.534C137.08 120.018 137.008 119.526 136.864 119.058C136.732 118.59 136.516 118.176 136.216 117.816C135.916 117.456 135.538 117.174 135.082 116.97C134.626 116.754 134.08 116.646 133.444 116.646C132.256 116.646 131.326 116.982 130.654 117.654C129.982 118.326 129.544 119.286 129.34 120.534H137.08ZM129.268 123.486C129.424 125.226 129.916 126.498 130.744 127.302C131.584 128.106 132.676 128.508 134.02 128.508C134.704 128.508 135.292 128.43 135.784 128.274C136.288 128.106 136.726 127.926 137.098 127.734C137.482 127.53 137.824 127.35 138.124 127.194C138.436 127.026 138.742 126.942 139.042 126.942C139.426 126.942 139.726 127.086 139.942 127.374L141.382 129.174C140.854 129.786 140.272 130.296 139.636 130.704C139 131.1 138.34 131.418 137.656 131.658C136.972 131.886 136.282 132.042 135.586 132.126C134.89 132.222 134.218 132.27 133.57 132.27C132.274 132.27 131.062 132.06 129.934 131.64C128.818 131.208 127.84 130.578 127 129.75C126.172 128.91 125.518 127.872 125.038 126.636C124.558 125.4 124.318 123.966 124.318 122.334C124.318 121.074 124.522 119.886 124.93 118.77C125.35 117.654 125.95 116.682 126.73 115.854C127.51 115.026 128.458 114.372 129.574 113.892C130.69 113.4 131.95 113.154 133.354 113.154C134.542 113.154 135.634 113.346 136.63 113.73C137.638 114.102 138.502 114.648 139.222 115.368C139.954 116.088 140.518 116.976 140.914 118.032C141.322 119.076 141.526 120.27 141.526 121.614C141.526 121.986 141.508 122.292 141.472 122.532C141.436 122.772 141.376 122.964 141.292 123.108C141.208 123.252 141.094 123.354 140.95 123.414C140.806 123.462 140.62 123.486 140.392 123.486H129.268ZM156.075 118.266C155.607 117.726 155.097 117.348 154.545 117.132C154.005 116.916 153.429 116.808 152.817 116.808C152.217 116.808 151.671 116.922 151.179 117.15C150.687 117.378 150.261 117.738 149.901 118.23C149.553 118.71 149.283 119.328 149.091 120.084C148.899 120.84 148.803 121.74 148.803 122.784C148.803 123.816 148.881 124.692 149.037 125.412C149.193 126.132 149.415 126.714 149.703 127.158C150.003 127.602 150.363 127.926 150.783 128.13C151.203 128.322 151.671 128.418 152.187 128.418C153.063 128.418 153.795 128.244 154.383 127.896C154.983 127.548 155.547 127.056 156.075 126.42V118.266ZM161.043 105.162V132H157.983C157.347 132 156.939 131.712 156.759 131.136L156.345 129.516C155.973 129.924 155.577 130.296 155.157 130.632C154.749 130.968 154.305 131.262 153.825 131.514C153.345 131.754 152.829 131.94 152.277 132.072C151.725 132.204 151.125 132.27 150.477 132.27C149.481 132.27 148.569 132.06 147.741 131.64C146.913 131.22 146.193 130.608 145.581 129.804C144.981 128.988 144.513 127.992 144.177 126.816C143.841 125.64 143.673 124.296 143.673 122.784C143.673 121.404 143.859 120.12 144.231 118.932C144.615 117.744 145.155 116.718 145.851 115.854C146.547 114.99 147.387 114.312 148.371 113.82C149.355 113.328 150.447 113.082 151.647 113.082C152.655 113.082 153.501 113.232 154.185 113.532C154.881 113.832 155.511 114.24 156.075 114.756V105.162H161.043Z" fill="#E6E6E6"/>
<defs>
<filter id="filter0_dd" x="0" y="0" width="226" height="236" filterUnits="userSpaceOnUse" color-interpolation-filters="sRGB">
<feFlood flood-opacity="0" result="BackgroundImageFix"/>
<feColorMatrix in="SourceAlpha" type="matrix" values="0 0 0 0 0 0 0 0 0 0 0 0 0 0 0 0 0 0 127 0"/>
<feOffset dx="-10" dy="-15"/>
<feGaussianBlur stdDeviation="20"/>
<feColorMatrix type="matrix" values="0 0 0 0 0.183073 0 0 0 0 0.224583 0 0 0 0 0.2375 0 0 0 1 0"/>
<feBlend mode="normal" in2="BackgroundImageFix" result="effect1_dropShadow"/>
<feColorMatrix in="SourceAlpha" type="matrix" values="0 0 0 0 0 0 0 0 0 0 0 0 0 0 0 0 0 0 127 0"/>
<feOffset dx="10" dy="15"/>
<feGaussianBlur stdDeviation="20"/>
<feColorMatrix type="matrix" values="0 0 0 0 0 0 0 0 0 0 0 0 0 0 0 0 0 0 1 0"/>
<feBlend mode="normal" in2="effect1_dropShadow" result="effect2_dropShadow"/>
<feBlend mode="normal" in="SourceGraphic" in2="effect2_dropShadow" result="shape"/>
</filter>
<filter id="filter1_f" x="48" y="53" width="130" height="130" filterUnits="userSpaceOnUse" color-interpolation-filters="sRGB">
<feFlood flood-opacity="0" result="BackgroundImageFix"/>
<feBlend mode="normal" in="SourceGraphic" in2="BackgroundImageFix" result="shape"/>
<feGaussianBlur stdDeviation="0.5" result="effect1_foregroundBlur"/>
</filter>
<filter id="filter2_f" x="52" y="57" width="122" height="122" filterUnits="userSpaceOnUse" color-interpolation-filters="sRGB">
<feFlood flood-opacity="0" result="BackgroundImageFix"/>
<feBlend mode="normal" in="SourceGraphic" in2="BackgroundImageFix" result="shape"/>
<feGaussianBlur stdDeviation="0.5" result="effect1_foregroundBlur"/>
</filter>
<linearGradient id="paint0_linear" x1="280.523" y1="292.682" x2="196.045" y2="198.182" gradientUnits="userSpaceOnUse">
<stop stop-color="#11A8FD"/>
<stop offset="1" stop-color="#0081C9"/>
</linearGradient>
<linearGradient id="paint1_linear" x1="282.6" y1="294" x2="202.6" y2="196.4" gradientUnits="userSpaceOnUse">
<stop stop-color="#11A8FD"/>
<stop offset="1" stop-color="#0081C9"/>
</linearGradient>
<linearGradient id="paint2_linear" x1="272" y1="283" x2="197" y2="191.5" gradientUnits="userSpaceOnUse">
<stop stop-color="#005EA3"/>
<stop offset="1" stop-color="#11A8FD"/>
</linearGradient>
<linearGradient id="paint3_linear" x1="272" y1="283" x2="197" y2="191.5" gradientUnits="userSpaceOnUse">
<stop stop-color="#005EA3"/>
<stop offset="1" stop-color="#11A8FD"/>
</linearGradient>
</defs>
</svg>
